<?xml version="1.0" encoding="utf-8"?>
<svg viewBox="4821.9462890625 3728.44384765625 885.97802734375 885.94287109375" width="885.97802734375" height="885.94287109375" xmlns="http://www.w3.org/2000/svg">
  <g transform="matrix(0.3501751028536546, 0, 0, -0.3501751028536546, 0, 4614.38671875)" id="g160">
    <path id="path162" style="fill:#4f4c4c;fill-opacity:1;fill-rule:nonzero;stroke:none" d="m 16300.2,1265 c 0,-358.179 -148.9,-681.637 -388.2,-911.768 C 15684.7,134.485 15375.6,0 15035.2,0 c -340.5,0 -649.5,134.485 -876.9,353.232 -239.3,230.131 -388.2,553.589 -388.2,911.768 0,698.66 566.4,1265 1265.1,1265 698.6,0 1265,-566.34 1265,-1265"/>
  </g>
  <g transform="matrix(0.34776180428426073, 0, 0, -0.34776180428426073, 0, 4614.38671875)" id="g164">
    <path id="path166" style="fill:#ffffff;fill-opacity:1;fill-rule:nonzero;stroke:none" d="m 16300,1273.78 c 0,-328.615 -136.6,-625.33 -356.1,-836.471 -208.6,-200.673 -492.1,-324.052 -804.4,-324.052 -312.3,0 -595.8,123.379 -804.4,324.052 -219.5,211.141 -356.1,507.856 -356.1,836.471 0,640.94 519.5,1160.52 1160.5,1160.52 641,0 1160.5,-519.58 1160.5,-1160.52"/>
  </g>
  <g transform="matrix(0.3459484607164498, 0, 0, -0.3459484607164498, 0, 4614.38671875)" id="g168">
    <path id="path170" style="fill:#4f4c4c;fill-opacity:1;fill-rule:nonzero;stroke:none" d="m 16300,1280.46 c 0,-306.136 -127.3,-582.593 -331.7,-779.23 -194.4,-186.965 -458.5,-301.895 -749.5,-301.895 -290.9,0 -555,114.93 -749.4,301.895 -204.5,196.637 -331.7,473.094 -331.7,779.23 0,597.12 484.1,1081.16 1081.1,1081.16 597.2,0 1081.2,-484.04 1081.2,-1081.16"/>
  </g>
  <g transform="matrix(0.3186098658263248, 0, 0, -0.3186098658263248, 0, 4614.38671875)" id="g172">
    <path id="path174" style="fill:#656263;fill-opacity:1;fill-rule:nonzero;stroke:none" d="m 16300,2024.58 c -1.3,-1.04 -2.8,-2.13 -4.4,-3.3 1.8,1.34 3.2,2.43 4.4,3.3"/>
  </g>
  <g transform="matrix(0.340041830134183, 0, 0, -0.340041830134183, 0, 4614.38671875)" id="g176">
    <path id="path178" style="fill:#ffffff;fill-opacity:1;fill-rule:nonzero;stroke:none" d="M 16300,967.368 V 470.921 c -211.8,-203.778 -499.7,-329.058 -816.8,-329.058 -317.1,0 -605,125.28 -816.8,329.058 v 472.216 l 0.9,71.283 c -0.1,4.2 -0.2,8.39 -0.2,12.51 0,10.63 0.2,21.1 0.7,31.6 v 0.4 h 0.1 c 7.2,164.13 70.6,314.74 172.7,435.67 -51.7,-1.61 -126.6,20.31 -126.6,20.31 250.3,85.87 259,125.63 245.2,140.88 -38.5,32.98 -135.8,-3.14 -135.8,-3.14 51.6,107.83 163.2,46.08 173.2,79.33 26.9,102.69 -92.4,111.59 -92.4,111.59 77.4,25.8 158.2,-28.7 198.5,-44.62 0,0 0,-0.04 0.1,-0.08 0.5,-0.23 1.1,-0.43 1.6,-0.66 8.1,-3.02 43,-14.12 75.2,6.66 1.1,0.82 2.3,1.61 3.6,2.43 0,0.12 0.2,0.2 0.4,0.28 0.7,0.55 1.4,1.1 2.1,1.57 0.2,0.15 0.4,0.31 0.6,0.43 83.6,57.09 182.6,138.57 277.5,162.64 0,0 -103,-108.57 -42.3,-163.86 52.4,-41.17 72.5,7.96 72.6,8.31 7.6,21.34 8.9,50.9 0.7,67.29 0,0 104.9,0.47 198.3,-100.15 12,-12.93 22.8,-22.38 32.8,-29.05 60.7,-40.58 137.6,43.29 224.6,55.05 -4.1,-1.76 -118.3,-52.89 72,-199.82 28,-26.38 101,-62.85 103.3,47.18 0,0 79.4,-109.99 41,-165.4 -17.3,-25.05 9.3,-73.71 9.9,-74.89 42.2,-74.46 92.1,-193.54 105.6,-280.08 11.6,-54.7 17.7,-111.32 17.7,-169.432"/>
  </g>
  <g transform="matrix(0.3173352197341046, 0, 0, -0.3173352197341046, 0, 4614.38671875)" id="g180">
    <path id="path182" style="fill:#656263;fill-opacity:1;fill-rule:nonzero;stroke:none" d="m 16300,1889.77 c -1.7,-1.3 -3.5,-2.6 -4.9,-3.61 1.9,1.43 3.5,2.6 4.9,3.61"/>
  </g>
  <g transform="matrix(0.3274818438603831, 0, 0, -0.3274818438603831, 0, 4614.38671875)" id="g184">
    <path id="path186" style="fill:#4f4c4c;fill-opacity:1;fill-rule:nonzero;stroke:none" d="m 16165.2,1341.67 c 0,-37.21 30.1,-67.42 67.4,-67.42 37.2,0 67.4,30.21 67.4,67.42 0,37.25 -30.2,67.42 -67.4,67.42 -37.3,0 -67.4,-30.17 -67.4,-67.42"/>
  </g>
  <g transform="matrix(0.3216005173729215, 0, 0, -0.3216005173729215, 0, 4614.38671875)" id="g188">
    <path id="path190" style="fill:#4f4c4c;fill-opacity:1;fill-rule:nonzero;stroke:none" d="m 16162.7,1366.2 c 0,-37.89 30.7,-68.65 68.6,-68.65 38,0 68.7,30.76 68.7,68.65 0,37.94 -30.7,68.66 -68.7,68.66 -37.9,0 -68.6,-30.72 -68.6,-68.66"/>
  </g>
  <g transform="matrix(0.3307751590836645, 0, 0, -0.3307751590836645, 0, 4614.38671875)" id="g192">
    <path id="path194" style="fill:#4f4c4c;fill-opacity:1;fill-rule:nonzero;stroke:none" d="m 15594.7,992.574 -30.2,-61.472 h -39.7 l 69.9,142.408 57.8,-117.778 57.8,117.778 57.8,-117.737 57.7,117.787 57.8,-117.787 57.7,117.787 57.8,-117.787 57.8,117.787 57.7,-117.787 57.8,117.787 57.7,-117.787 30.2,61.507 h 39.7 l -69.9,-142.49 -57.7,117.743 -57.8,-117.743 -57.7,117.784 -57.8,-117.784 -57.8,117.784 -57.7,-117.784 -57.8,117.784 -57.7,-117.784 -57.8,117.784 -57.8,-117.784 -57.8,117.784"/>
  </g>
</svg>