<?xml version="1.0" encoding="utf-8"?>
<svg viewBox="4821.9462890625 2306.113037109375 885.97802734375 885.95703125" width="885.97802734375" height="885.95703125" xmlns="http://www.w3.org/2000/svg">
  <g transform="matrix(0.3501751028536546, 0, 0, -0.3501751028536546, 0, 4614.38671875)" id="g124">
    <path id="path126" style="fill:#4dc4d6;fill-opacity:1;fill-rule:nonzero;stroke:none" d="m 16300.2,5326.73 c 0,-358.18 -148.9,-681.64 -388.2,-911.77 -227.3,-218.75 -536.4,-353.23 -876.8,-353.23 -340.5,0 -649.5,134.48 -876.9,353.23 -239.3,230.13 -388.2,553.59 -388.2,911.77 0,698.66 566.4,1265.04 1265.1,1265.04 698.6,0 1265,-566.38 1265,-1265.04"/>
  </g>
  <g transform="matrix(0.34776180428426073, 0, 0, -0.34776180428426073, 0, 4614.38671875)" id="g128">
    <path id="path130" style="fill:#ffffff;fill-opacity:1;fill-rule:nonzero;stroke:none" d="m 16300,5363.69 c 0,-328.57 -136.6,-625.33 -356.1,-836.43 -208.6,-200.67 -492.1,-324.05 -804.4,-324.05 -312.3,0 -595.8,123.38 -804.4,324.05 -219.5,211.1 -356.1,507.86 -356.1,836.43 0,640.98 519.5,1160.53 1160.5,1160.53 641,0 1160.5,-519.55 1160.5,-1160.53"/>
  </g>
  <g transform="matrix(0.3459484607164498, 0, 0, -0.3459484607164498, 0, 4614.38671875)" id="g132">
    <path id="path134" style="fill:#4dc4d6;fill-opacity:1;fill-rule:nonzero;stroke:none" d="m 16300,5391.81 c 0,-306.13 -127.3,-582.55 -331.7,-779.23 -194.4,-186.96 -458.5,-301.89 -749.5,-301.89 -290.9,0 -555,114.93 -749.4,301.89 -204.5,196.68 -331.7,473.1 -331.7,779.23 0,597.12 484.1,1081.16 1081.1,1081.16 597.2,0 1081.2,-484.04 1081.2,-1081.16"/>
  </g>
  <g transform="matrix(0.3186098658263248, 0, 0, -0.3186098658263248, 0, 4614.38671875)" id="g136">
    <path id="path138" style="fill:#656263;fill-opacity:1;fill-rule:nonzero;stroke:none" d="m 16300,6488.72 c -1.3,-1 -2.8,-2.13 -4.4,-3.3 1.8,1.38 3.2,2.42 4.4,3.3"/>
  </g>
  <g transform="matrix(0.340041830134183, 0, 0, -0.340041830134183, 0, 4614.38671875)" id="g140">
    <path id="path142" style="fill:#ffffff;fill-opacity:1;fill-rule:nonzero;stroke:none" d="m 16300,5150.14 v -496.45 c -211.8,-203.78 -499.7,-329.05 -816.8,-329.05 -317.1,0 -605,125.27 -816.8,329.05 v 472.22 l 0.9,71.32 c -0.1,4.16 -0.2,8.35 -0.2,12.51 0,10.59 0.2,21.1 0.7,31.57 v 0.39 h 0.1 c 7.2,164.17 70.6,314.74 172.7,435.67 -51.7,-1.61 -126.6,20.31 -126.6,20.31 250.3,85.87 259,125.67 245.2,140.88 -38.5,32.98 -135.8,-3.1 -135.8,-3.1 51.6,107.8 163.2,46.08 173.2,79.29 26.9,102.69 -92.4,111.59 -92.4,111.59 77.4,25.84 158.2,-28.7 198.5,-44.62 0,0 0,-0.04 0.1,-0.08 0.5,-0.19 1.1,-0.43 1.6,-0.66 8.1,-3.02 43,-14.12 75.2,6.66 1.1,0.83 2.3,1.65 3.6,2.47 0,0.08 0.2,0.16 0.4,0.24 0.7,0.55 1.4,1.1 2.1,1.57 0.2,0.15 0.4,0.35 0.6,0.43 83.6,57.09 182.6,138.57 277.5,162.64 0,0 -103,-108.53 -42.3,-163.86 52.4,-41.13 72.5,8 72.6,8.32 7.6,21.33 8.9,50.89 0.7,67.28 0,0 104.9,0.51 198.3,-100.14 12,-12.94 22.8,-22.39 32.8,-29.02 60.7,-40.62 137.6,43.25 224.6,55.01 -4.1,-1.76 -118.3,-52.85 72,-199.78 28,-26.38 101,-62.89 103.3,47.14 0,0 79.4,-109.99 41,-165.4 -17.3,-25.05 9.3,-73.71 9.9,-74.89 42.2,-74.42 92.1,-193.54 105.6,-280.04 11.6,-54.7 17.7,-111.36 17.7,-169.47"/>
  </g>
  <g transform="matrix(0.3173352197341046, 0, 0, -0.3173352197341046, 0, 4614.38671875)" id="g144">
    <path id="path146" style="fill:#656263;fill-opacity:1;fill-rule:nonzero;stroke:none" d="m 16300,6371.82 c -1.7,-1.3 -3.5,-2.56 -4.9,-3.61 1.9,1.43 3.5,2.65 4.9,3.61"/>
  </g>
  <g transform="matrix(0.3274818438603831, 0, 0, -0.3274818438603831, 0, 4614.38671875)" id="g148">
    <path id="path150" style="fill:#4dc4d6;fill-opacity:1;fill-rule:nonzero;stroke:none" d="m 16165.2,5684.87 c 0,-37.21 30.1,-67.43 67.4,-67.43 37.2,0 67.4,30.22 67.4,67.43 0,37.25 -30.2,67.46 -67.4,67.46 -37.3,0 -67.4,-30.21 -67.4,-67.46"/>
  </g>
  <g transform="matrix(0.3216005173729215, 0, 0, -0.3216005173729215, 0, 4614.38671875)" id="g152">
    <path id="path154" style="fill:#4dc4d6;fill-opacity:1;fill-rule:nonzero;stroke:none" d="m 16162.7,5788.82 c 0,-37.9 30.7,-68.66 68.6,-68.66 38,0 68.7,30.76 68.7,68.66 0,37.93 -30.7,68.69 -68.7,68.69 -37.9,0 -68.6,-30.76 -68.6,-68.69"/>
  </g>
  <g transform="matrix(0.3307751590836645, 0, 0, -0.3307751590836645, 0, 4614.38671875)" id="g156">
    <path id="path158" style="fill:#4dc4d6;fill-opacity:1;fill-rule:nonzero;stroke:none" d="m 15594.7,5292.52 -30.2,-61.47 h -39.7 l 69.9,142.45 57.8,-117.82 57.8,117.78 57.8,-117.7 57.7,117.78 57.8,-117.78 57.7,117.78 57.8,-117.78 57.8,117.78 57.7,-117.78 57.8,117.78 57.7,-117.78 30.2,61.47 h 39.7 l -69.9,-142.45 -57.7,117.7 -57.8,-117.7 -57.7,117.74 -57.8,-117.74 -57.8,117.74 -57.7,-117.74 -57.8,117.74 -57.7,-117.74 -57.8,117.74 -57.8,-117.74 -57.8,117.74"/>
  </g>
</svg>