<?xml version="1.0" encoding="utf-8"?>
<svg viewBox="0 0.019647547975182533 1479.80859375 1512.9810791015625" width="1479.80859375" height="1512.9810791015625" xmlns="http://www.w3.org/2000/svg">
  <g transform="matrix(0.246607381948543, 0, 0, -0.246607381948543, 0, 4614.38671875)" id="g196">
    <path id="path198" style="fill:#656263;fill-opacity:1;fill-rule:nonzero;stroke:none" d="m 2135.23,16300 c -2.54,-1.9 -5.08,-3.8 -7.08,-5.2 2.68,2 5.02,3.7 7.08,5.2"/>
  </g>
  <g transform="matrix(0.24669270379585126, 0, 0, -0.24669270379585126, 0, 4614.38671875)" id="g200">
    <path id="path202" style="fill:#656263;fill-opacity:1;fill-rule:nonzero;stroke:none" d="m 2142.08,16300 c -1.6,-1.3 -3.55,-2.7 -5.55,-4.2 2.29,1.8 4.1,3.1 5.55,4.2"/>
  </g>
  <g transform="matrix(0.20983681287600575, 0, 0, -0.20983681287600575, 0, 4614.38671875)" id="g204">
    <path id="path206" style="fill:#4f4c4c;fill-opacity:1;fill-rule:nonzero;stroke:none" d="M 3210.34,16076 H 2762.5 c 0,123.7 100.27,224 223.92,224 123.72,0 223.92,-100.3 223.92,-224"/>
  </g>
  <g transform="matrix(0.2500740429368662, 0, 0, -0.2500740429368662, 0, 4614.38671875)" id="g208">
    <path id="path210" style="fill:#4f4c4c;fill-opacity:1;fill-rule:nonzero;stroke:none" d="m 3686.83,14865.7 v -1376.3 h -934.82 c 0,135.9 -110.2,246.1 -246.11,246.1 -135.91,0 -246.06,-110.2 -246.06,-246.1 h -898.3 v 673.5 c -311.58,-64.3 -546.502,-340.8 -546.502,-671.1 H 272.694 c 0,327.8 127.698,636.1 359.573,868 196.906,196.9 448.933,318.5 721.333,350.7 l 2.72,222.3 c -0.11,6 -0.21,12 -0.21,18 0,15 0.32,30 1.01,45 v 0.5 h 0.05 c 10.4,234.4 100.88,449.3 246.54,621.9 -73.79,-2.3 -180.69,29 -180.69,29 357.33,122.6 369.66,179.3 350.03,201.1 -54.97,47.1 -193.97,-4.4 -193.97,-4.4 73.74,153.8 233.05,65.7 247.29,113.2 38.33,146.5 -131.91,159.2 -131.91,159.2 110.53,36.9 225.75,-40.9 283.28,-63.6 0,0 0.1,-0.1 0.21,-0.1 0.74,-0.4 1.55,-0.7 2.29,-1 11.52,-4.3 61.32,-20.2 107.33,9.5 1.66,1.2 3.36,2.3 5.06,3.4 0.17,0.2 0.32,0.4 0.6,0.5 0.64,0.5 1.27,0.9 1.86,1.3 0.21,0.1 0.37,0.3 0.59,0.4 119.8,81.7 261.62,198.9 397.53,233.3 0,0 -146.89,-154.9 -60.36,-233.9 74.71,-58.8 103.49,11.4 103.71,11.8 10.77,30.5 12.74,72.7 0.9,96.1 0,0 149.72,0.7 283.12,-142.9 17.12,-18.5 32.58,-32 46.81,-41.5 86.64,-57.9 195.77,41.9 406.37,8.5 -5.76,-2.5 -226.6,-28.2 16.92,-215.1 40.09,-37.7 149.7,-60.8 177.69,67.3 0,0 83.14,-157.1 28.33,-236.1 -24.79,-35.7 13.23,-105.2 14.13,-106.9 60.2,-106.3 131.42,-276.2 150.67,-399.8 16.59,-78 25.33,-158.9 25.33,-241.8"/>
  </g>
  <g transform="matrix(0.23601939846010822, 0, 0, -0.23601939846010822, 0, 4614.38671875)" id="g212">
    <path id="path214" style="fill:#ffffff;fill-opacity:1;fill-rule:nonzero;stroke:none" d="m 2767.69,16224.8 c 0,-41.5 33.65,-75.1 75.17,-75.1 41.51,0 75.17,33.6 75.17,75.1 0,41.5 -33.66,75.2 -75.17,75.2 -41.52,0 -75.17,-33.7 -75.17,-75.2"/>
  </g>
  <g transform="matrix(0.23601939846010822, 0, 0, -0.23601939846010822, 0, 4614.38671875)" id="g216">
    <path id="path218" style="fill:#ffffff;fill-opacity:1;fill-rule:nonzero;stroke:none" d="m 2441.4,16224.8 c 0,-41.5 33.65,-75.1 75.17,-75.1 41.51,0 75.17,33.6 75.17,75.1 0,41.5 -33.66,75.2 -75.17,75.2 -41.52,0 -75.17,-33.7 -75.17,-75.2"/>
  </g>
  <g transform="matrix(0.2529327062904585, 0, 0, -0.2529327062904585, 0, 4614.38671875)" id="g220">
    <path id="path222" style="fill:#4f4c4c;fill-opacity:1;fill-rule:nonzero;stroke:none" d="m 4441.72,16300 -387.54,-387.5 c 38.96,-25.8 75.62,-55.6 109.4,-89.4 130.88,-130.8 202.97,-304.9 202.97,-490 0,-185.1 -72.09,-359.1 -202.97,-490 -130.9,-130.9 -304.93,-203 -490.04,-203 -9.49,0 -18.95,0.3 -28.39,0.6 v -542.1 c 9.45,-0.2 18.9,-0.4 28.39,-0.4 682.02,0 1234.91,552.9 1234.91,1234.9 0,391.7 -182.35,740.7 -466.73,966.9"/>
  </g>
  <g transform="matrix(0.2522513712854817, 0, 0, -0.2522513712854817, 0, 4614.38671875)" id="g224">
    <path id="path226" style="fill:none;stroke:#ffffff;stroke-width:21.14290047;stroke-linecap:round;stroke-linejoin:miter;stroke-miterlimit:10;stroke-dasharray:none;stroke-opacity:1" d="m 4283.27,16274 -27.17,26"/>
  </g>
  <g transform="matrix(0.2542086875233594, 0, 0, -0.2542086875233594, 0, 4614.38671875)" id="g228">
    <path id="path230" style="fill:#4f4c4c;fill-opacity:1;fill-rule:nonzero;stroke:none" d="m 3959.71,15784.5 515.53,515.5 v -172.6 l -338.51,-338.5 -177.02,-4.4"/>
  </g>
  <g transform="matrix(0.2533780392855931, 0, 0, -0.2533780392855931, 0, 4614.38671875)" id="g232">
    <path id="path234" style="fill:#4f4c4c;fill-opacity:1;fill-rule:nonzero;stroke:none" d="m 4489.15,16217.1 82.88,82.9 v -161.2 l 72.39,72.4 v -172.6 l -191.69,-51 36.42,229.5"/>
  </g>
  <g transform="matrix(0.24625404650412006, 0, 0, -0.24625404650412006, 0, 4614.38671875)" id="g236">
    <path id="path238" style="fill:#4f4c4c;fill-opacity:1;fill-rule:nonzero;stroke:none" d="m 4228.39,16300 -75.68,-75.7 h 152.16 l -89.1,-89.1 h 168.85 l -56.96,106.2 -63.47,58.6 h -35.8"/>
  </g>
  <g transform="matrix(0.20983681287600575, 0, 0, -0.20983681287600575, 0, 4614.38671875)" id="g240">
    <path id="path242" style="fill:#bdbcbc;fill-opacity:1;fill-rule:nonzero;stroke:none" d="M 3210.34,16076 H 2762.5 c 0,123.7 100.27,224 223.92,224 123.72,0 223.92,-100.3 223.92,-224"/>
  </g>
  <g transform="matrix(0.20983681287600575, 0, 0, -0.20983681287600575, 0, 4614.38671875)" id="g244">
    <path id="path246" style="fill:#ffffff;fill-opacity:1;fill-rule:nonzero;stroke:none" d="m 3210.34,16076 c 0,-123.6 -100.2,-223.9 -223.92,-223.9 -123.65,0 -223.92,100.3 -223.92,223.9 0,123.7 100.27,224 223.92,224 123.72,0 223.92,-100.3 223.92,-224"/>
  </g>
  <g transform="matrix(0.20983681287600575, 0, 0, -0.20983681287600575, 0, 4614.38671875)" id="g248">
    <path id="path250" style="fill:#4dc4d6;fill-opacity:1;fill-rule:nonzero;stroke:none" d="m 3210.34,16076 c 0,-123.6 -100.2,-223.9 -223.92,-223.9 -123.65,0 -223.92,100.3 -223.92,223.9 0,123.7 100.27,224 223.92,224 123.72,0 223.92,-100.3 223.92,-224"/>
  </g>
  <g transform="matrix(0.20249015359696543, 0, 0, -0.20249015359696543, 0, 4614.38671875)" id="g252">
    <path id="path254" style="fill:#4dc4d6;fill-opacity:1;fill-rule:nonzero;stroke:none" d="m 1442.67,15900.1 c 4.54,56.1 15.73,94.1 33.52,114 17.77,19.9 46.67,29.9 86.84,29.9 41.29,0 70.79,-10.5 88.56,-31.6 17.78,-21.1 27.79,-58.5 30.1,-112.3 z m 452.29,293.7 c -68.81,70.8 -174.29,106.2 -316.45,106.2 -329.04,0 -493.58,-164.9 -493.58,-494.5 0,-322.8 162.76,-484.1 488.44,-484.1 65.32,0 132.69,5 202.09,14.9 69.33,9.9 131.55,23.1 186.61,39.5 l -8.64,259.4 c -26.4,-5.7 -55.04,-11 -85.99,-15.6 -30.95,-4.7 -62.23,-8.8 -93.7,-12.3 -31.54,-3.6 -61.89,-6.4 -91.2,-8.9 -29.23,-2.3 -55.84,-3.4 -79.93,-3.4 -27.53,0 -51.03,1.1 -70.52,3.4 -19.49,2.5 -35.23,7.7 -47.29,15.9 -12.05,8.2 -21.26,19.8 -27.52,35.1 -6.32,15.1 -10.6,35.6 -12.9,61.3 h 538.29 c 5.74,23.4 9.75,46.8 12.06,70.2 2.3,23.3 3.42,51.4 3.42,84.2 0,148.4 -34.38,258.1 -103.19,328.7"/>
  </g>
  <g transform="matrix(0.2055994896133555, 0, 0, -0.2055994896133555, 0, 4614.38671875)" id="g256">
    <path id="path258" style="fill:#4dc4d6;fill-opacity:1;fill-rule:nonzero;stroke:none" d="m 2616.06,15341.9 c -36.32,0 -61.87,8.3 -76.72,24.8 -14.85,16.5 -22.24,47.2 -22.24,92.3 v 274.3 h 186.31 v 320.3 h -188 v 246.4 h -230.55 l -90.98,-246.4 h -155.06 v -320.3 h 131.97 v -358.4 c 0,-94.5 28.02,-166.6 84.11,-216 56.04,-49.5 139.05,-74.3 248.97,-74.3 37.41,0 74.25,2.3 110.51,6.7 36.31,4.4 66.53,10.4 90.72,18.1 v 250.7 c -34.12,-12.1 -63.82,-18.2 -89.04,-18.2"/>
  </g>
  <g transform="matrix(0.20249015359696543, 0, 0, -0.20249015359696543, 0, 4614.38671875)" id="g260">
    <path id="path262" style="fill:#4dc4d6;fill-opacity:1;fill-rule:nonzero;stroke:none" d="m 2917.1,16300 v -963.7 h 351.62 V 16300 H 2917.1"/>
  </g>
  <g transform="matrix(0.20251149995332443, 0, 0, -0.20251149995332443, 0, 4614.38671875)" id="g264">
    <path id="path266" style="fill:#4dc4d6;fill-opacity:1;fill-rule:nonzero;stroke:none" d="m 5158.17,15698.6 c -3.89,-28.1 -11.19,-50 -21.72,-65.9 -10.67,-15.7 -24.9,-26.2 -42.74,-31.5 -17.84,-5.2 -40.75,-7.8 -68.66,-7.8 -27.86,0 -50.76,2.6 -68.61,7.8 -17.84,5.3 -32.13,15.8 -42.74,31.5 -10.59,15.9 -17.84,37.8 -21.71,65.9 -3.96,28 -5.87,64.8 -5.87,110.5 0,45.5 1.91,82.1 5.87,109.5 3.87,27.5 11.12,49.1 21.71,64.9 10.61,15.8 24.9,26.3 42.74,31.6 17.85,5.2 40.75,7.9 68.61,7.9 27.91,0 50.82,-2.7 68.66,-7.9 17.84,-5.3 32.07,-15.6 42.74,-30.7 10.53,-15.3 17.83,-36.8 21.72,-64.9 3.88,-28.1 5.86,-64.9 5.86,-110.4 0,-45.7 -1.98,-82.5 -5.86,-110.5 z m 232.74,476.9 c -83.16,83 -205.08,124.5 -365.86,124.5 -160.72,0 -282.66,-41.5 -365.81,-124.5 -83.16,-83 -124.7,-205.1 -124.7,-366.4 0,-161.3 41.54,-283.9 124.7,-367.4 83.15,-83.6 205.09,-125.4 365.81,-125.4 160.78,0 282.7,41.8 365.86,125.4 83.09,83.5 124.7,206.1 124.7,367.4 0,161.3 -41.61,283.4 -124.7,366.4"/>
  </g>
  <g transform="matrix(0.2055994896133555, 0, 0, -0.2055994896133555, 0, 4614.38671875)" id="g268">
    <path id="path270" style="fill:#4dc4d6;fill-opacity:1;fill-rule:nonzero;stroke:none" d="m 6061.65,15341.9 c -36.25,0 -61.79,8.3 -76.64,24.8 -14.85,16.5 -22.25,47.2 -22.25,92.3 v 248.9 h 186.32 v 287 h -188.01 v 305.1 l -272.05,-28 -49.55,-277.1 h -154.99 v -287 h 131.98 v -333 c 0,-94.5 28.01,-166.6 84.1,-216 56.03,-49.5 139.05,-74.3 248.97,-74.3 37.36,0 74.25,2.3 110.5,6.7 36.25,4.4 66.48,10.4 90.73,18.1 v 250.7 c -34.11,-12.1 -63.81,-18.2 -89.11,-18.2"/>
  </g>
  <g transform="matrix(0.2059114833802731, 0, 0, -0.2059114833802731, 0, 4614.38671875)" id="g272">
    <path id="path274" style="fill:#4dc4d6;fill-opacity:1;fill-rule:nonzero;stroke:none" d="M 896.551,16300 H 866.112 842.05 L 626.52,15822.3 410.997,16300 H 390.243 356.501 0 l 451.156,-826.6 v -391.9 h 355.669 v 400.1 L 1253.05,16300 H 896.551"/>
  </g>
  <g transform="matrix(0.2055994896133555, 0, 0, -0.2055994896133555, 0, 4614.38671875)" id="g276">
    <path id="path278" style="fill:#4dc4d6;fill-opacity:1;fill-rule:nonzero;stroke:none" d="m 4009.57,15443 c -4.02,-31.4 -11.4,-55.5 -22.23,-72.7 -10.83,-17.1 -26.53,-28.5 -47.02,-34.2 -20.56,-5.7 -47.35,-8.6 -80.42,-8.6 -44.49,0 -78.72,4.6 -102.66,13.8 v 212.1 c 0,45.5 2.28,83.5 6.88,113.7 4.53,30.2 12.19,54.1 23.08,71.8 10.83,17.7 24.78,30.3 41.89,37.7 17.13,7.4 38.79,11.1 64.99,11.1 25.09,0 45.65,-2.8 61.61,-8.5 15.95,-5.8 28.2,-16.9 36.77,-33.4 8.55,-16.5 14.52,-39.2 17.96,-67.6 3.44,-28.6 5.12,-65.6 5.12,-111.1 0,-51.4 -2,-92.7 -5.97,-124.1 z m 5.97,604.7 c -55.9,0 -105.44,-8.8 -148.83,-26.6 -43.32,-17.6 -79.83,-45.2 -109.47,-82.9 v 361.8 h -359.2 v -1140.1 c 57,-13.7 107.78,-25.1 152.26,-34.3 44.43,-9.1 84.63,-16.2 120.56,-21.3 35.93,-5.1 69,-8.9 99.23,-11.1 30.21,-2.2 60.11,-3.5 89.81,-3.5 169.91,2.4 298.77,47 386.58,134.3 87.81,87.3 131.71,212.4 131.71,375.6 0,298.6 -120.88,448.1 -362.65,448.1"/>
  </g>
  <g transform="matrix(0.2308127630632839, 0, 0, -0.2308127630632839, 0, 4614.38671875)" id="g280">
    <path id="path282" style="fill:#ffffff;fill-opacity:1;fill-rule:nonzero;stroke:none" d="m 2277.36,16132.1 h 56.52 l 31.08,59.5 65.44,-125.3 65.37,125.3 65.36,-125.3 65.39,125.3 65.37,-125.3 65.32,125.3 65.38,-125.3 65.37,125.3 65.38,-125.3 65.31,125.2 65.37,-125.2 87.57,167.9 h -56.53 l -31.04,-59.5 -65.33,125.3 -65.35,-125.3 -65.38,125.3 -65.37,-125.3 -65.38,125.3 -65.32,-125.3 -65.37,125.3 -65.39,-125.3 -65.36,125.3 -65.37,-125.4 -65.44,125.4 -87.6,-167.9"/>
  </g>
  <g transform="matrix(0.26084068096400165, 0, 0, -0.26084068096400165, 0, 4614.38671875)" id="g284">
    <path id="path286" style="fill:#4f4c4c;fill-opacity:1;fill-rule:nonzero;stroke:none" d="m 4219.93,16043.5 c 3.33,-143.2 -110.02,-261.9 -253.18,-265.2 -143.14,-3.4 -261.9,110 -265.23,253.1 -3.33,143.2 110.01,261.9 253.17,265.3 143.16,3.3 261.91,-110 265.24,-253.2"/>
  </g>
  <g transform="matrix(0.26084068096400165, 0, 0, -0.26084068096400165, 0, 4614.38671875)" id="g288">
    <path id="path290" style="fill:#4f4c4c;fill-opacity:1;fill-rule:nonzero;stroke:none" d="m 4219.93,16043.5 c 3.33,-143.2 -110.02,-261.9 -253.18,-265.2 -143.14,-3.4 -261.9,110 -265.23,253.1 -3.33,143.2 110.01,261.9 253.17,265.3 143.16,3.3 261.91,-110 265.24,-253.2"/>
  </g>
  <g transform="matrix(0.259198012879871, 0, 0, -0.259198012879871, 0, 4614.38671875)" id="g292">
    <path id="path294" style="fill:#4f4c4c;fill-opacity:1;fill-rule:nonzero;stroke:none" d="m 3625.18,16278 c -24.87,22 -66.54,16.1 -93.08,-13.2 -26.53,-29.4 -27.9,-71 -3.02,-93 l 154.36,-136.7 104.37,-0.6 -5.65,104.2 c -0.86,0.9 -1.68,1.8 -2.61,2.6 l -154.37,136.7"/>
  </g>
  <g transform="matrix(0.2615286757778499, 0, 0, -0.2615286757778499, 0, 4614.38671875)" id="g296">
    <path id="path298" style="fill:#4f4c4c;fill-opacity:1;fill-rule:nonzero;stroke:none" d="m 3720.32,16278.2 c -24.65,21.8 -65.94,15.9 -92.24,-13.1 -26.32,-29.1 -27.65,-70.3 -3.01,-92.2 l 152.99,-135.4 103.44,-0.7 -5.6,103.3 c -0.85,0.9 -1.66,1.8 -2.58,2.6 l -153,135.5"/>
  </g>
  <g transform="matrix(0.26386067381650946, 0, 0, -0.26386067381650946, 0, 4614.38671875)" id="g300">
    <path id="path302" style="fill:#4f4c4c;fill-opacity:1;fill-rule:nonzero;stroke:none" d="m 3813.78,16278.4 c -24.43,21.6 -65.36,15.8 -91.43,-13 -26.08,-28.8 -27.4,-69.7 -2.97,-91.4 l 151.64,-134.2 102.52,-0.6 -5.56,102.3 c -0.83,0.9 -1.64,1.8 -2.56,2.6 l -151.64,134.3"/>
  </g>
  <g transform="matrix(0.2597527002545661, 0, 0, -0.2597527002545661, 0, 4614.38671875)" id="g304">
    <path id="path306" style="fill:#4f4c4c;fill-opacity:1;fill-rule:nonzero;stroke:none" d="m 4282.43,15944.2 -43.52,-44.1 -362.48,-367.3 -160.93,108.7 -163.65,-11.2 c -12.11,-0.8 -23.46,1.7 -33.3,6.6 -6.05,2.6 -11.59,6.2 -16.51,10.5 -6.56,5.8 -11.89,13.1 -15.52,21.3 -3.42,7.8 -5.29,16.4 -5.31,25.5 l -1.31,229.7 c 0.03,2.8 0.25,5.5 0.59,8.3 l 0.43,118.5 100.98,-62.9 c 2.14,-1.2 4.22,-2.4 6.23,-3.8 l 0.54,-0.5 c 15.4,-11.2 25.34,-29.3 25.44,-50.5 l 1.84,-87.7 -51.23,-27.2 171.39,14.9 413.29,467 52.54,-147.1 80.49,-208.7"/>
  </g>
  <g transform="matrix(0.2577793623285203, 0, 0, -0.2577793623285203, 0, 4614.38671875)" id="g308">
    <path id="path310" style="fill:#4f4c4c;fill-opacity:1;fill-rule:nonzero;stroke:none" d="m 4312.94,16073.7 -2.87,-2.9 -41.35,-41.9 -31.6,-9.6 -78.1,148.6 74.58,101.2 22.75,30.9 56.59,-226.3"/>
  </g>
  <g transform="matrix(0.2563526850385536, 0, 0, -0.2563526850385536, 0, 4614.38671875)" id="g312">
    <path id="path314" style="fill:none;stroke:#ffffff;stroke-width:20.80459976;stroke-linecap:round;stroke-linejoin:miter;stroke-miterlimit:10;stroke-dasharray:none;stroke-opacity:1" d="m 4174.94,16041.8 c -72.97,69.6 -75.66,185.2 -6.01,258.2"/>
  </g>
  <g transform="matrix(0.25338736937582595, 0, 0, -0.25338736937582595, 0, 4614.38671875)" id="g316">
    <path id="path318" style="fill:none;stroke:#ffffff;stroke-width:21.04809952;stroke-linecap:round;stroke-linejoin:miter;stroke-miterlimit:10;stroke-dasharray:none;stroke-opacity:1" d="m 3962.57,16223.5 c 70.46,73.8 187.43,76.5 261.23,6"/>
  </g>
  <g transform="matrix(0.25237402938825326, 0, 0, -0.25237402938825326, 0, 4614.38671875)" id="g320">
    <path id="path322" style="fill:none;stroke:#ffffff;stroke-width:21.13260078;stroke-linecap:round;stroke-linejoin:miter;stroke-miterlimit:10;stroke-dasharray:none;stroke-opacity:1" d="m 4262.65,16274.1 -27.16,25.9"/>
  </g>
  <g transform="matrix(0.2830912772434999, 0, 0, -0.2830912772434999, 0, 4614.38671875)" id="g324">
    <path id="path326" style="fill:#4dc4d6;fill-opacity:1;fill-rule:nonzero;stroke:none" d="m 5191.67,14475 c -5.84,-2.3 -12.29,-4.8 -19.45,-7.5 -3.53,-1.4 -7.21,-2.9 -11.07,-4.4 -3.86,-1.4 -7.91,-2.9 -12.1,-4.4 -8.44,-3.1 -17.29,-6.5 -26.99,-9.6 -9.61,-3.2 -19.69,-6.9 -30.52,-10.1 -5.33,-1.7 -10.88,-3.4 -16.49,-5.1 -5.65,-1.8 -11.49,-3.2 -17.38,-5 -11.77,-3.4 -24.3,-6.2 -37.06,-9.4 -6.41,-1.5 -13,-2.7 -19.64,-4 -3.35,-0.7 -6.64,-1.5 -10.04,-2.1 -3.39,-0.6 -6.78,-1.1 -10.22,-1.7 -6.87,-1.1 -13.8,-2.3 -20.91,-3.1 -7.06,-0.7 -14.13,-2 -21.38,-2.4 -28.87,-2.6 -58.92,-2.8 -88.92,0.7 -15.03,1.6 -29.96,4.6 -44.8,8 -3.62,1.1 -7.3,2.1 -11.02,3.1 -1.83,0.6 -3.67,1 -5.51,1.6 l -5.46,1.8 c -3.63,1.3 -7.3,2.4 -10.93,3.7 -3.58,1.4 -7.16,2.8 -10.83,4.3 -14.27,6.1 -28.5,12.5 -42.25,20.9 l -5.23,3 -5.1,3.3 c -3.41,2.3 -6.88,4.3 -10.27,6.6 -6.75,4.8 -13.55,9.4 -20.15,14.8 -3.34,2.5 -6.68,5.1 -9.94,8 -3.27,2.7 -6.57,5.5 -9.88,8.2 -6.47,5.9 -13.06,11.6 -19.4,18.1 -6.47,6 -12.63,12.9 -19.05,19.4 -6.2,7 -12.57,13.7 -18.63,21.1 -49.23,58 -94.23,130.8 -136.13,211.4 -20.98,40.3 -41.31,82.7 -61.23,126.3 -9.95,21.9 -19.9,43.9 -29.53,66.5 -9.91,22.4 -19.63,45.2 -29.26,68.2 -38.79,91.9 -77.04,187.5 -116.46,284 -39.6,96.4 -80.46,193.6 -124.6,289.2 -44.17,95.6 -91.7,189.5 -145.63,278.4 -53.95,88.9 -114.04,173.3 -185.91,245.9 -18.02,18.1 -36.46,35.6 -56.16,51.7 -4.84,4.1 -9.7,8.1 -14.76,12 -5.03,3.9 -9.94,7.8 -15,11.6 -10.27,7.5 -20.47,14.9 -31.15,21.7 -10.37,7 -21.42,13.3 -32.12,19.7 -11.06,6.1 -21.97,12 -33.34,17.2 -5.6,2.7 -11.17,5.3 -16.95,7.6 -5.75,2.4 -11.38,4.8 -17.09,7.1 -11.62,4.2 -23.02,8.4 -34.75,11.6 -11.48,3.6 -23.35,6.1 -34.8,8.8 -11.71,2.1 -23.15,4.3 -34.68,5.4 -22.89,2.9 -45.37,3.3 -66.89,2.4 -10.74,-0.7 -21.3,-1.3 -31.55,-2.8 -5.14,-0.7 -10.22,-1.3 -15.23,-2.1 -4.94,-1 -9.88,-1.9 -14.77,-2.8 -9.79,-1.7 -19.1,-4.4 -28.31,-6.7 -4.63,-1.1 -9.09,-2.6 -13.5,-4 -4.4,-1.4 -8.76,-2.8 -13.1,-4.2 -8.58,-2.9 -16.78,-6.2 -24.9,-9.2 -8,-3.3 -15.65,-6.9 -23.19,-10.2 -14.88,-7 -28.87,-14.2 -41.73,-21.9 -3.23,-1.8 -6.45,-3.7 -9.6,-5.5 -3.14,-1.9 -6.13,-3.9 -9.13,-5.8 -5.96,-3.9 -11.85,-7.5 -17.41,-11.3 -11.01,-7.8 -21.52,-15.1 -30.95,-22.6 -4.74,-3.7 -9.33,-7.3 -13.81,-10.9 -4.33,-3.6 -8.54,-7.2 -12.61,-10.6 -4.01,-3.5 -7.91,-6.9 -11.68,-10.1 -3.63,-3.4 -7.14,-6.7 -10.54,-9.8 -13.64,-12.3 -24.53,-23.8 -33.34,-32.8 -8.73,-9.1 -14.9,-16.5 -19.32,-21.3 -4.29,-4.9 -6.49,-7.4 -6.49,-7.4 0,0 3.11,1.3 9.14,3.8 5.97,2.4 14.85,6.2 26.42,11 11.64,4.6 25.59,10.4 42.33,16.6 4.14,1.5 8.45,3.1 12.93,4.8 4.49,1.5 9.15,3.1 13.95,4.8 4.76,1.6 9.66,3.3 14.71,5 5.09,1.6 10.31,3.2 15.69,4.9 10.59,3.6 22.06,6.3 33.73,9.7 5.88,1.6 11.95,2.9 18.1,4.4 3.05,0.7 6.15,1.4 9.27,2.1 3.13,0.7 6.3,1.3 9.51,1.9 12.72,2.7 25.99,4.7 39.51,6.5 6.79,0.7 13.65,1.6 20.59,2.1 6.96,0.4 13.95,1 21,1.2 14.12,0.2 28.43,0.1 42.74,-1.2 3.56,-0.4 7.14,-0.7 10.76,-1 3.58,-0.5 7.14,-1.2 10.72,-1.6 7.17,-0.9 14.25,-2.6 21.37,-4 14.13,-3.5 28.21,-7.4 41.91,-13.1 6.95,-2.4 13.61,-6 20.45,-8.9 6.68,-3.6 13.47,-6.7 20.01,-10.8 6.67,-3.7 13.09,-8.2 19.66,-12.4 3.23,-2.2 6.43,-4.6 9.66,-6.9 3.25,-2.3 6.42,-4.8 9.57,-7.4 6.41,-4.8 12.58,-10.5 18.9,-15.8 6.17,-5.8 12.46,-11.3 18.49,-17.7 6.17,-5.9 12.05,-12.7 18.15,-19.1 2.99,-3.3 5.92,-6.8 8.91,-10.2 3.02,-3.4 5.92,-6.9 8.83,-10.6 11.7,-14.2 23.16,-29.6 34.39,-45.6 44.94,-64.5 85.7,-142 124.52,-225.9 19.39,-42 38.48,-85.6 57.13,-130.5 9.49,-22.4 18.8,-45.2 28.06,-68.2 9.29,-23 18.77,-46.1 28.01,-69.6 5.4,-13.5 10.84,-27.2 16.26,-40.9 l 129.21,-321 c 30.66,-72.6 62.76,-145.2 97.35,-216.6 46.35,-95.6 97.37,-189.2 156.18,-277 14.52,-22 30.06,-43.4 45.71,-64.5 15.92,-21 32.13,-41.7 49.35,-61.5 17.18,-20 34.66,-39.4 53.4,-57.8 l 6.92,-7 7.11,-6.8 c 4.78,-4.5 9.44,-9 14.25,-13.5 9.77,-8.8 19.45,-17.4 29.65,-25.7 9.9,-8.4 20.45,-16.3 30.67,-24.2 10.66,-7.7 21.05,-15.3 32.08,-22.3 10.73,-7.3 22.03,-13.9 33.08,-20.4 11.39,-6.3 22.53,-12.6 34.28,-17.9 23.03,-11.3 46.76,-20.8 70.72,-28.1 23.84,-7.6 48.02,-12.9 71.75,-16.4 5.93,-0.8 11.87,-1.5 17.75,-2.3 5.89,-0.6 11.78,-0.9 17.57,-1.4 11.59,-1.1 23.18,-0.8 34.43,-1 22.61,0.6 44.42,2 65.14,5.5 41.49,6.5 78.7,18 111.53,31.5 8.29,3.1 16.06,7 23.83,10.4 7.82,3.4 15.12,7.3 22.33,11 3.62,1.9 7.16,3.7 10.74,5.6 3.48,1.8 6.83,3.8 10.22,5.7 6.68,4 13.33,7.6 19.59,11.6 6.22,3.9 12.29,7.8 18.23,11.7 5.98,3.7 11.49,7.8 17,11.6 5.41,3.9 10.83,7.5 15.87,11.5 4.99,3.8 9.89,7.6 14.65,11.3 18.89,14.8 34.9,28.8 48.37,41.4 13.71,12.2 24.44,23.7 33.39,32.5 8.76,9.1 15.17,16.4 19.55,21.2 4.33,4.8 6.59,7.3 6.59,7.3 0,0 -12.67,-4.9 -35.65,-14.3"/>
  </g>
  <g transform="matrix(0.2700419936992944, 0, 0, -0.2700419936992944, 0, 4614.38671875)" id="g328">
    <path id="path330" style="fill:#4dc4d6;fill-opacity:1;fill-rule:nonzero;stroke:none" d="m 4262.34,16249.1 c -63.22,50.9 -155.71,40.9 -206.58,-22.3 l -744.35,-924.9 v 0 l -305.19,-376 h 112.19 60.62 204.85 l 900.8,1116.7 c 50.88,63.2 40.88,155.7 -22.34,206.5"/>
  </g>
  <g transform="matrix(0.259198012879871, 0, 0, -0.259198012879871, 0, 4614.38671875)" id="g332">
    <path id="path334" style="fill:#4f4c4c;fill-opacity:1;fill-rule:nonzero;stroke:none" d="m 3625.18,16278 c -24.87,22 -66.54,16.1 -93.08,-13.2 -26.53,-29.4 -27.9,-71 -3.02,-93 l 154.36,-136.7 104.37,-0.6 -5.65,104.2 c -0.86,0.9 -1.68,1.8 -2.61,2.6 l -154.37,136.7"/>
  </g>
  <g transform="matrix(0.2615286757778499, 0, 0, -0.2615286757778499, 0, 4614.38671875)" id="g336">
    <path id="path338" style="fill:#4f4c4c;fill-opacity:1;fill-rule:nonzero;stroke:none" d="m 3720.32,16278.2 c -24.65,21.8 -65.94,15.9 -92.24,-13.1 -26.32,-29.1 -27.65,-70.3 -3.01,-92.2 l 152.99,-135.4 103.44,-0.7 -5.6,103.3 c -0.85,0.9 -1.66,1.8 -2.58,2.6 l -153,135.5"/>
  </g>
  <g transform="matrix(0.26386067381650946, 0, 0, -0.26386067381650946, 0, 4614.38671875)" id="g340">
    <path id="path342" style="fill:#4f4c4c;fill-opacity:1;fill-rule:nonzero;stroke:none" d="m 3813.78,16278.4 c -24.43,21.6 -65.36,15.8 -91.43,-13 -26.08,-28.8 -27.4,-69.7 -2.97,-91.4 l 151.64,-134.2 102.52,-0.6 -5.56,102.3 c -0.83,0.9 -1.64,1.8 -2.56,2.6 l -151.64,134.3"/>
  </g>
  <g transform="matrix(0.2597527002545661, 0, 0, -0.2597527002545661, 0, 4614.38671875)" id="g344">
    <path id="path346" style="fill:#4f4c4c;fill-opacity:1;fill-rule:nonzero;stroke:none" d="m 4282.43,15944.2 -43.52,-44.1 -362.48,-367.3 -160.93,108.7 -163.65,-11.2 c -12.11,-0.8 -23.46,1.7 -33.3,6.6 -6.05,2.6 -11.59,6.2 -16.51,10.5 -6.56,5.8 -11.89,13.1 -15.52,21.3 -3.42,7.8 -5.29,16.4 -5.31,25.5 l -1.31,229.7 c 0.03,2.8 0.25,5.5 0.59,8.3 l 0.43,118.5 100.98,-62.9 c 2.14,-1.2 4.22,-2.4 6.23,-3.8 l 0.54,-0.5 c 15.4,-11.2 25.34,-29.3 25.44,-50.5 l 1.84,-87.7 -51.23,-27.2 171.39,14.9 413.29,467 52.54,-147.1 80.49,-208.7"/>
  </g>
  <g transform="matrix(0.2577793623285203, 0, 0, -0.2577793623285203, 0, 4614.38671875)" id="g348">
    <path id="path350" style="fill:#4f4c4c;fill-opacity:1;fill-rule:nonzero;stroke:none" d="m 4312.94,16073.7 -2.87,-2.9 -41.35,-41.9 -31.6,-9.6 -78.1,148.6 74.58,101.2 22.75,30.9 56.59,-226.3"/>
  </g>
</svg>