<?xml version="1.0" encoding="utf-8"?>
<svg viewBox="135.10174560546875 2359.8154296875 3399.511474609375 781.5537109375" width="3399.511474609375" height="781.5537109375" xmlns="http://www.w3.org/2000/svg">
  <g transform="matrix(0.13735965469717829, 0, 0, -0.13735965469717829, 0, 4614.38671875)" id="g14">
    <path id="path16" style="fill:#4dc4d6;fill-opacity:1;fill-rule:nonzero;stroke:none" d="m 6559.87,13511.9 c 0,-789.5 -328.15,-1502.4 -855.52,-2009.6 -501.16,-482.2 -1182.25,-778.5 -1932.63,-778.5 -750.39,0 -1431.49,296.3 -1932.64,778.5 -527.39,507.2 -855.518,1220.1 -855.518,2009.6 0,1539.9 1248.278,2788.1 2788.158,2788.1 1539.86,0 2788.15,-1248.2 2788.15,-2788.1"/>
  </g>
  <g transform="matrix(0.13527031847723237, 0, 0, -0.13527031847723237, 0, 4614.38671875)" id="g18">
    <path id="path20" style="fill:#ffffff;fill-opacity:1;fill-rule:nonzero;stroke:none" d="m 6409.42,13720.6 c 0,-730.4 -303.59,-1389.9 -791.48,-1859.2 -463.64,-446 -1093.76,-720.3 -1787.97,-720.3 -694.24,0 -1324.34,274.3 -1787.99,720.3 -487.89,469.3 -791.47,1128.8 -791.47,1859.2 0,1424.6 1154.85,2579.4 2579.46,2579.4 1424.6,0 2579.45,-1154.8 2579.45,-2579.4"/>
  </g>
  <g transform="matrix(0.14235831014392275, 0, 0, -0.14235831014392275, 0, 4614.38671875)" id="g22">
    <path id="path24" style="fill:#4dc4d6;fill-opacity:1;fill-rule:nonzero;stroke:none" d="m 16300,15159.1 c 0,-374.5 -303.6,-678.2 -678.2,-678.2 -374.5,0 -678.2,303.7 -678.2,678.2 0,374.6 303.7,678.2 678.2,678.2 374.6,0 678.2,-303.6 678.2,-678.2"/>
  </g>
  <path id="path26" style="fill:#4dc4d6;fill-opacity:1;fill-rule:nonzero;stroke:none" d="m 11899.7,14265.4 c -125.3,0 -215.6,-31 -271,-93 -55.5,-62.1 -90.4,-180.6 -104.7,-355.7 h 746 c -7.2,167.7 -38.5,284.5 -93.9,350.2 -55.5,65.7 -147.6,98.5 -276.4,98.5 z m 32.2,-2254.6 c -1016.1,0 -1524.1,503.4 -1524.1,1510.3 0,1028.9 513.4,1543.3 1540.2,1543.3 443.6,0 772.8,-110.4 987.4,-331.1 214.7,-220.8 322,-562.8 322,-1026.1 0,-102.2 -3.6,-189.7 -10.7,-262.7 -7.2,-73 -19.7,-145.9 -37.6,-218.9 h -1679.7 c 7.2,-80.3 20.6,-144.1 40.3,-191.5 19.6,-47.5 48.3,-84 85.8,-109.5 37.6,-25.5 86.7,-41.9 147.6,-49.2 60.8,-7.4 134.2,-11 220,-11 75.2,0 158.4,3.6 249.6,11 91.2,7.3 186,16.4 284.4,27.4 98.4,10.9 195.9,23.6 292.5,38.3 96.6,14.5 186,30.9 268.3,49.2 l 26.8,-809.9 c -171.7,-51.1 -365.8,-92.2 -582.2,-123.1 -216.5,-31 -426.7,-46.5 -630.6,-46.5" transform="matrix(0.1333329975605011, 0, 0, -0.1333329975605011, 0, 4614.38671875)"/>
  <path id="path28" style="fill:#4dc4d6;fill-opacity:1;fill-rule:nonzero;stroke:none" d="m 14955.4,11994.6 c -348.3,0 -611.3,78.3 -788.9,235.1 -177.7,156.7 -266.5,384.8 -266.5,684.4 v 1135.5 h -417.9 v 1014.8 h 491.1 l 288.3,780.8 h 730.5 v -780.8 h 595.6 v -1014.8 h -590.4 v -869 c 0,-142.9 23.5,-240.3 70.6,-292.6 47,-52.2 128,-78.4 242.9,-78.4 80.1,0 174.1,19.1 282.2,57.5 v -794.2 c -76.7,-24.3 -172.5,-43.5 -287.4,-57.4 -115,-13.9 -231.7,-20.9 -350.1,-20.9" transform="matrix(0.1333329975605011, 0, 0, -0.1333329975605011, 0, 4614.38671875)"/>
  <g transform="matrix(0.14087431717187826, 0, 0, -0.14087431717187826, 0, 4614.38671875)" id="g30">
    <path id="path32" style="fill:#4dc4d6;fill-opacity:1;fill-rule:nonzero;stroke:none" d="M 15261.5,14257.9 H 16300 v -2846.1 h -1038.5 v 2846.1"/>
  </g>
  <g transform="matrix(0.19824084585725288, 0, 0, -0.19824084585725288, 0, 4614.38671875)" id="g34">
    <path id="path36" style="fill:#4dc4d6;fill-opacity:1;fill-rule:nonzero;stroke:none" d="m 16038.2,9874.36 c -174.6,174.24 -430.5,261.34 -767.9,261.34 -337.3,0 -593.2,-87.1 -767.8,-261.34 -174.5,-174.26 -261.7,-430.65 -261.7,-769.3 0,-338.57 87.2,-595.63 261.7,-771.04 174.6,-175.48 430.5,-263.19 767.8,-263.19 337.4,0 593.3,87.71 767.9,263.19 174.5,175.41 261.8,432.47 261.8,771.04 0,338.65 -87.3,595.04 -261.8,769.3"/>
  </g>
  <g transform="matrix(0.21684744585587623, 0, 0, -0.21684744585587623, 0, 4614.38671875)" id="g38">
    <path id="path40" style="fill:#4dc4d6;fill-opacity:1;fill-rule:nonzero;stroke:none" d="m 15908.1,7375.14 c -214.2,0 -375.9,48.14 -485.2,144.55 -109.2,96.35 -163.8,236.61 -163.8,420.82 v 648.94 h -257 v 558.98 h 302 l 96.3,539.73 530.1,54.6 v -594.33 h 366.2 v -558.98 h -362.9 v -485.08 c 0,-87.86 14.4,-147.75 43.3,-179.91 28.9,-32.09 78.7,-48.2 149.4,-48.2 49.2,0 107.1,11.74 173.5,35.35 v -488.33 c -47.2,-14.94 -106.1,-26.74 -176.7,-35.29 -70.7,-8.55 -142.5,-12.85 -215.2,-12.85"/>
  </g>
  <path id="path42" style="fill:#4dc4d6;fill-opacity:1;fill-rule:nonzero;stroke:none" d="m 9867.27,15923.6 h -172.93 l -683.88,-1515.8 -683.89,1515.8 h -65.86 -107.06 -1131.2 l 1431.57,-2622.8 v -1243.5 h 1128.55 v 1269.6 l 1415.93,2596.7 H 9867.27" transform="matrix(0.1333329975605011, 0, 0, -0.1333329975605011, 0, 4614.38671875)"/>
  <g transform="matrix(0.17090891077599935, 0, 0, -0.17090891077599935, 0, 4614.38671875)" id="g44">
    <path id="path46" style="fill:#4dc4d6;fill-opacity:1;fill-rule:nonzero;stroke:none" d="m 15018.9,9957.78 c 81.7,0 148,7.02 198.7,21.14 50.7,14.12 89.5,42.28 116.3,84.58 26.7,42.3 45.1,102.1 55,179.7 9.8,77.5 14.8,179.7 14.8,306.5 0,112.7 -4.3,204.4 -12.7,274.9 -8.4,70.4 -23.3,126.1 -44.4,166.9 -21.2,40.8 -51.5,68.4 -90.9,82.5 -39.5,14.1 -90.3,21.1 -152.2,21.1 -64.9,0 -118.4,-9.2 -160.7,-27.4 -42.3,-18.4 -76.9,-49.4 -103.6,-93 -26.8,-43.8 -45.8,-103 -57,-177.7 -11.4,-74.6 -17,-168.4 -17,-281.1 v -524.27 c 59.2,-22.62 143.8,-33.85 253.7,-33.85 z m 0,-587.68 c -73.3,0 -147.3,2.8 -221.9,8.42 -74.8,5.7 -156.5,14.82 -245.3,27.54 -88.8,12.64 -188.2,30.19 -298.1,52.82 -109.9,22.54 -235.4,50.7 -376.2,84.56 v 2818.06 h 887.8 v -894.2 c 73.3,93 163.5,161.2 270.6,205 107.1,43.7 229.7,65.5 367.9,65.5 597.5,0 896.3,-369.3 896.3,-1107.7 0,-403.2 -108.5,-712.5 -325.6,-928.13 -217,-215.63 -535.5,-326.26 -955.5,-331.87"/>
  </g>
  <g transform="matrix(0.1337023229040284, 0, 0, -0.1337023229040284, 0, 4614.38671875)" id="g48">
    <path id="path50" style="fill:#4dc4d6;fill-opacity:1;fill-rule:nonzero;stroke:none" d="m 6293.43,13881.5 c 0,-684.8 -284.66,-1303.2 -742.11,-1743.2 -434.71,-418.2 -1025.51,-675.3 -1676.43,-675.3 -650.93,0 -1241.73,257.1 -1676.45,675.3 -457.46,440 -742.1,1058.4 -742.1,1743.2 0,1335.7 1082.81,2418.5 2418.55,2418.5 1335.73,0 2418.54,-1082.8 2418.54,-2418.5"/>
  </g>
  <path id="path52" style="fill:#656263;fill-opacity:1;fill-rule:nonzero;stroke:none" d="m 3421.28,15230.2 c -2.63,-2.1 -5.82,-4.4 -9.1,-6.8 3.75,2.8 6.71,5 9.1,6.8" transform="matrix(0.1333329975605011, 0, 0, -0.1333329975605011, 0, 4614.38671875)"/>
  <path id="path54" style="fill:#ffffff;fill-opacity:1;fill-rule:nonzero;stroke:none" d="m 5686.53,13180.5 v -1094.6 c -467,-449.3 -1101.68,-725.5 -1800.92,-725.5 -699.26,0 -1333.93,276.2 -1800.93,725.5 v 1041.2 l 1.9,157.2 c -0.18,9.2 -0.39,18.4 -0.39,27.6 0,23.4 0.48,46.5 1.53,69.6 v 0.8 h 0.09 c 16.08,362 155.89,694.1 380.93,960.7 -114.03,-3.5 -279.15,44.8 -279.15,44.8 551.92,189.3 571.04,277 540.7,310.6 -84.94,72.8 -299.6,-6.9 -299.6,-6.9 113.95,237.7 359.99,101.6 381.97,174.9 59.25,226.4 -203.73,246 -203.73,246 170.71,57 348.67,-63.3 437.6,-98.3 0,0 0.1,-0.1 0.28,-0.2 1.15,-0.5 2.39,-1 3.53,-1.5 17.79,-6.6 94.73,-31.1 165.78,14.7 2.57,1.8 5.23,3.6 7.88,5.4 0.2,0.2 0.49,0.4 0.87,0.6 1.61,1.2 3.13,2.4 4.66,3.4 0.47,0.4 0.86,0.8 1.34,1 184.5,125.9 402.78,305.5 611.84,358.6 0,0 -226.93,-239.4 -93.22,-361.3 115.47,-90.7 159.89,17.6 160.18,18.4 16.65,46.9 19.69,112.2 1.41,148.3 0,0 231.32,1.1 437.35,-220.8 26.52,-28.6 50.3,-49.4 72.25,-64 133.84,-89.5 303.51,95.4 495.27,121.3 -8.96,-3.9 -260.79,-116.6 158.64,-440.5 61.9,-58.2 222.74,-138.7 227.78,103.9 0,0 175.2,-242.5 90.54,-364.6 -38.32,-55.3 20.36,-162.6 21.79,-165.1 92.93,-164.2 203.06,-426.8 232.74,-617.6 25.58,-120.6 39.09,-245.5 39.09,-373.6" transform="matrix(0.1333329975605011, 0, 0, -0.1333329975605011, 0, 4614.38671875)"/>
  <path id="path56" style="fill:#656263;fill-opacity:1;fill-rule:nonzero;stroke:none" d="m 3286.72,14936.1 c -3.59,-2.7 -7.2,-5.3 -10.04,-7.4 3.8,2.9 7.14,5.3 10.04,7.4" transform="matrix(0.1333329975605011, 0, 0, -0.1333329975605011, 0, 4614.38671875)"/>
  <path id="path58" style="fill:#4dc4d6;fill-opacity:1;fill-rule:nonzero;stroke:none" d="m 4072.65,13896.5 c 0,-79 64.09,-143.1 143.18,-143.1 79.07,0 143.16,64.1 143.16,143.1 0,79.1 -64.09,143.2 -143.16,143.2 -79.09,0 -143.18,-64.1 -143.18,-143.2" transform="matrix(0.1333329975605011, 0, 0, -0.1333329975605011, 0, 4614.38671875)"/>
  <path id="path60" style="fill:#4dc4d6;fill-opacity:1;fill-rule:nonzero;stroke:none" d="m 3451.13,13896.5 c 0,-79 64.14,-143.1 143.18,-143.1 79.08,0 143.19,64.1 143.19,143.1 0,79.1 -64.11,143.2 -143.19,143.2 -79.04,0 -143.18,-64.1 -143.18,-143.2" transform="matrix(0.1333329975605011, 0, 0, -0.1333329975605011, 0, 4614.38671875)"/>
  <path id="path62" style="fill:#4dc4d6;fill-opacity:1;fill-rule:nonzero;stroke:none" d="m 3194.44,13176.5 -64.74,-131.9 h -85.17 l 149.91,305.5 124.01,-252.7 123.92,252.7 123.9,-252.6 123.86,252.7 123.95,-252.7 123.81,252.7 123.86,-252.7 123.92,252.7 123.9,-252.7 123.86,252.7 123.82,-252.7 64.69,132 h 85.19 l -149.88,-305.6 -123.84,252.4 -123.84,-252.4 -123.9,252.6 -123.92,-252.6 -123.86,252.6 -123.81,-252.6 -123.95,252.6 -123.86,-252.6 -123.9,252.6 -123.92,-252.6 -124.01,252.6" transform="matrix(0.1333329975605011, 0, 0, -0.1333329975605011, 0, 4614.38671875)"/>
  <g transform="matrix(0.19462751012843782, 0, 0, -0.19462751012843782, 0, 4614.38671875)" id="g64">
    <path id="path66" style="fill:#ffffff;fill-opacity:1;fill-rule:nonzero;stroke:none" d="m 15064.7,8666.13 c -23.8,0 -47.1,8.22 -65.6,23.16 -45.1,36.24 -52.2,102.34 -16,147.35 l 474.5,589.64 c 0,0 -6.4,16.24 -9.6,24.19 -4,10.14 -8,20 -12,29.87 l -4.3,10.82 c -5.4,13.29 -10.9,26.51 -16.3,39.53 -10.8,25.89 -22,51.38 -33.3,75.77 -25.4,55.01 -48,96.04 -71,129.13 -6.7,9.52 -12.9,17.88 -19.2,25.42 -1.6,1.98 -3.1,3.84 -4.6,5.48 0,0 -4.2,4.86 -5.1,5.89 -1,1.03 -2.2,2.4 -3.4,3.7 -2.1,2.26 -4.1,4.52 -6.3,6.57 -0.2,0.21 -0.4,0.42 -0.6,0.62 -2.2,2.4 -4.6,4.52 -7,6.65 l -2.6,2.46 -3.2,2.81 c -2.2,1.85 -4.4,3.77 -6.6,5.42 -0.2,0.13 -0.4,0.34 -0.6,0.47 -1.4,1.17 -2.8,2.27 -4.2,3.29 0,0 -4.6,3.29 -5.5,3.91 -1.1,0.75 -2.3,1.5 -3.5,2.33 -2.1,1.37 -4.3,2.81 -6.5,4.04 -0.4,0.21 -0.7,0.41 -1,0.62 -2.1,1.3 -4.2,2.33 -6.3,3.42 -1.1,0.55 -2.2,1.16 -3.3,1.71 -1.5,0.62 -2.9,1.31 -4.4,1.99 -1.8,0.82 -3.7,1.71 -5.6,2.4 -0.3,0.14 -0.7,0.27 -1.1,0.41 -6.2,2.6 -13,4.52 -21.1,6.58 l -3,0.61 c -2.4,0.48 -4.8,1.03 -7.3,1.37 -1.5,0.14 -2.7,0.34 -3.8,0.55 -0.9,0.14 -1.8,0.27 -2.7,0.41 l -5.8,0.48 c -4.8,0.48 -10.1,0.69 -16.7,0.69 -2,0 -4,0 -6,-0.07 -2,0 -4.3,-0.21 -6.6,-0.35 -1.6,-0.13 -3.2,-0.2 -4.9,-0.27 -1.9,-0.2 -4.2,-0.41 -6.5,-0.68 l -4.1,-0.42 c -7.1,-1.02 -14.6,-2.12 -21.4,-3.56 l -5.4,-1.09 -9,-2.06 c -2.1,-0.48 -4.1,-0.96 -6.1,-1.51 -2.2,-0.61 -4.8,-1.37 -7.3,-2.05 -3.9,-1.03 -7.6,-2.06 -11.2,-3.22 l -9.6,-3.01 -8.1,-2.81 -7.9,-2.67 -7.3,-2.74 c -6.6,-2.4 -12.3,-4.73 -17.5,-6.79 l -7,-2.81 -15,-6.3 -5.4,-2.19 c -2.6,-1.1 -5.2,-1.58 -7.9,-1.58 -6.4,0 -12.7,3.09 -16.7,8.56 -5.6,7.75 -5,18.3 1.2,25.49 l 3.9,4.38 c 1,1.17 1.8,2.13 2.8,3.16 2.4,2.73 5.4,6.16 9.1,10.07 l 2.4,2.4 c 4.8,5 10.9,11.16 18.2,17.74 0,0 6.3,5.89 6.4,6.03 l 6.9,5.89 c 0,0 7.9,6.71 8.1,6.85 l 8.1,6.37 c 5.2,4.18 10.8,8.08 16.7,12.19 l 2.3,1.65 c 2.5,1.78 5,3.36 7.5,4.93 l 4.6,3.01 c 1.5,0.96 3,1.92 4.6,2.88 l 6.1,3.5 c 7.1,4.24 15.6,8.7 25.8,13.56 l 4.6,2.06 c 3.2,1.43 6.6,2.94 10,4.31 l 4.8,1.85 c 3.6,1.37 7.2,2.74 11,4.04 l 9.6,3.09 c 2.6,0.82 5.2,1.64 7.9,2.26 l 4,0.96 c 4.1,1.09 8.8,2.26 13.7,3.15 l 8.2,1.57 c 3.4,0.55 6.2,0.96 9.1,1.3 l 1.1,0.14 c 5.5,0.82 11.3,1.23 16.8,1.58 l 2.9,0.2 c 4.7,0.21 9,0.28 13.3,0.28 10.5,0 20.3,-0.55 29.8,-1.78 6.1,-0.62 12.6,-1.72 18.7,-2.88 l 2.7,-0.48 c 0.4,-0.07 5.4,-1.24 5.4,-1.24 5.6,-1.3 11.3,-2.6 17.2,-4.45 7.4,-2.05 14.5,-4.59 21.6,-7.19 2.9,-1.17 5.4,-2.19 8,-3.29 l 2.8,-1.16 c 3.6,-1.44 7.2,-3.15 10.9,-4.94 7.1,-3.22 14.1,-6.98 20.5,-10.55 l 3.8,-2.19 c 5.5,-3.22 11.1,-6.58 16.7,-10.34 6.3,-4.04 12.8,-8.7 18.8,-13.16 2.5,-1.78 4.8,-3.56 7,-5.34 l 2.3,-1.78 c 3.1,-2.4 6.1,-4.93 9.2,-7.54 10.4,-8.56 21.4,-18.56 34.2,-31.44 39,-39.39 74.5,-86.39 111.8,-147.77 28.6,-47.13 56.8,-101.12 86.4,-165.04 27.1,-58.84 52.3,-119.06 73.2,-170.1 6.8,-16.51 13.5,-32.88 20.1,-49.18 16.4,-40.56 32,-78.86 48,-116.88 5.6,-13.42 11.3,-26.58 17.1,-39.59 5.7,-13.57 11.6,-26.58 17.2,-38.71 12.4,-27.27 24,-51.11 35.3,-72.96 26.2,-50.42 51.4,-89.61 77.1,-119.96 2.5,-3.08 4.9,-5.68 7.3,-8.22 l 2.9,-3.29 c 1.5,-1.44 2.9,-2.94 4.3,-4.45 1.9,-2.05 3.9,-4.18 6,-6.03 0.2,-0.2 0.3,-0.41 0.5,-0.54 2.6,-2.68 5.2,-5.01 7.9,-7.4 l 2.3,-2.13 5.5,-4.52 c 2,-1.78 3.5,-2.94 5.1,-4.11 3.3,-2.6 6.1,-4.59 8.9,-6.58 l 2.4,-1.71 c 0.6,-0.41 1.5,-0.96 2.4,-1.51 1,-0.68 5.4,-3.49 5.4,-3.49 l 2.5,-1.44 c 7.1,-4.31 14.2,-7.6 22.6,-11.23 l 5.9,-2.27 c 0.5,-0.2 8.5,-2.87 8.5,-2.87 l 2.6,-0.69 5.7,-1.64 c 9.2,-2.06 16.6,-3.43 23.2,-4.11 8.2,-0.96 16.6,-1.44 25.1,-1.44 7.4,0 15.2,0.34 23,1.1 0.2,0 0.5,0 0.7,0 2.2,0.13 4.4,0.41 6.5,0.75 1.7,0.2 3.3,0.41 5,0.62 3.3,0.34 6.3,0.82 9.5,1.37 l 7.6,1.23 c 0.6,0.14 9.5,1.92 9.5,1.92 2.1,0.48 4.3,0.89 6.4,1.37 l 6.3,1.51 c 4.9,1.23 9.7,2.39 14.3,3.76 1.7,0.41 3.2,0.83 4.7,1.24 1.7,0.54 3.5,0.96 5.2,1.5 l 9.7,3.02 c 4.4,1.3 8.3,2.67 12,3.9 l 5.5,1.85 c 3.9,1.3 7.3,2.53 10.7,3.77 l 11.6,4.25 5.9,2.4 11.6,4.45 c 13.3,5.48 20.9,8.36 20.9,8.36 2.4,0.95 4.8,1.43 7.4,1.43 6.5,0 12.9,-3.22 16.9,-8.9 5.4,-7.81 4.7,-18.36 -1.7,-25.42 l -6.5,-7.33 c -2.5,-2.67 -5.5,-6.03 -9.3,-9.86 -1.7,-1.72 -3.1,-3.22 -4.7,-4.8 -4.3,-4.31 -9.6,-9.73 -16,-15.34 -8.8,-8.29 -18.7,-16.86 -29.2,-25.08 l -8.7,-6.71 c -2.2,-1.71 -4.6,-3.36 -7,-5.07 l -6.1,-4.32 c -2.5,-1.78 -5.1,-3.63 -7.8,-5.27 l -10.6,-6.72 c -2.7,-1.78 -5.5,-3.35 -8.3,-5 l -5.7,-3.28 c -1.6,-0.96 -3.2,-1.86 -4.9,-2.74 l -8.1,-4.25 c -4,-1.99 -8,-4.11 -12.6,-6.1 -1.3,-0.62 -2.7,-1.23 -4.1,-1.85 -3.5,-1.64 -7.1,-3.22 -10.8,-4.66 -22.3,-9.18 -45.8,-15.75 -69.3,-19.45 -11.3,-1.99 -24,-3.09 -40.8,-3.5 -0.2,0 -6.2,0 -6.2,0 -5.2,0.07 -10.6,0.14 -16.5,0.69 l -2.6,0.2 c -2.6,0.14 -5.2,0.35 -7.8,0.62 l -10.9,1.44 c -15.9,2.33 -31.1,5.75 -45.6,10.34 -14.5,4.46 -29.4,10.35 -44.2,17.54 -6.5,3.01 -12.9,6.51 -19.1,9.93 l -1.8,1.03 -2.5,1.44 c -6,3.63 -12.3,7.33 -18.5,11.51 -5.9,3.7 -11.9,8.08 -17.7,12.19 l -1.6,1.24 -4.1,3.15 c -5,3.83 -10.2,7.74 -15.2,12.05 -6.2,5.07 -12.5,10.62 -17.8,15.42 -2,1.92 -3.8,3.63 -5.7,5.41 l -7.2,6.85 -4.4,4.39 c -9.8,9.66 -19.8,20.48 -32.3,34.94 -9,10.48 -18.5,22.26 -29.7,37.06 -8.4,11.3 -18.1,24.66 -27.5,38.84 -31.8,47.41 -62.1,101.26 -92.8,164.55 -13.8,28.5 -27.9,59.33 -42.8,93.59 l -401.5,-498.87 c -20,-24.87 -49.8,-39.12 -81.7,-39.12"/>
  </g>
  <g transform="matrix(0.1943608475665357, 0, 0, -0.1943608475665357, 0, 4614.38671875)" id="g68">
    <path id="path70" style="fill:#ffffff;fill-opacity:1;fill-rule:nonzero;stroke:none" d="m 16279.1,8878.54 c -3.5,-1.3 -7.2,-2.74 -11.4,-4.39 -2.1,-0.82 -4.3,-1.65 -6.5,-2.54 -2.3,-0.89 -4.6,-1.71 -7.1,-2.6 -4.9,-1.79 -10.1,-3.85 -15.8,-5.63 -5.7,-1.92 -11.6,-4.05 -17.9,-5.9 -3.1,-1.03 -6.4,-1.99 -9.7,-3.02 -3.2,-1.03 -6.7,-1.92 -10.2,-2.88 -6.9,-2.06 -14.2,-3.7 -21.7,-5.56 -3.7,-0.89 -7.6,-1.57 -11.5,-2.4 -2,-0.34 -3.9,-0.82 -5.9,-1.16 -2,-0.35 -4,-0.69 -6,-0.96 -4,-0.69 -8,-1.37 -12.2,-1.86 -4.1,-0.41 -8.3,-1.16 -12.6,-1.37 -16.9,-1.51 -34.5,-1.64 -52,0.35 -8.9,0.96 -17.6,2.67 -26.3,4.73 -2.1,0.62 -4.3,1.23 -6.5,1.85 -1.1,0.28 -2.2,0.55 -3.3,0.89 l -3.1,1.03 c -2.1,0.76 -4.3,1.44 -6.5,2.2 -2,0.82 -4.1,1.64 -6.3,2.47 -8.3,3.63 -16.6,7.41 -24.7,12.28 l -3.1,1.78 -3,1.92 c -2,1.37 -4,2.54 -6,3.91 -4,2.81 -8,5.49 -11.8,8.64 -2,1.51 -3.9,2.95 -5.8,4.67 -2,1.58 -3.9,3.22 -5.9,4.87 -3.7,3.43 -7.6,6.79 -11.3,10.56 -3.8,3.5 -7.4,7.62 -11.2,11.39 -3.6,4.05 -7.3,8.03 -10.9,12.35 -28.9,34.03 -55.2,76.63 -79.8,123.96 -12.3,23.6 -24.3,48.37 -35.9,73.95 -5.8,12.83 -11.7,25.8 -17.3,38.97 -5.8,13.17 -11.5,26.55 -17.2,39.99 -22.7,53.93 -45.1,109.9 -68.2,166.5 -23.2,56.46 -47.1,113.47 -73.1,169.51 -25.8,56.05 -53.7,111.07 -85.3,163.2 -31.6,52.07 -66.8,101.53 -108.9,144.13 -10.6,10.57 -21.4,20.86 -33,30.33 -2.9,2.33 -5.7,4.73 -8.6,6.99 -3,2.27 -5.9,4.6 -8.9,6.79 -5.9,4.46 -11.9,8.72 -18.2,12.7 -6.1,4.18 -12.6,7.89 -18.8,11.59 -6.5,3.57 -12.9,7 -19.6,10.09 -3.3,1.57 -6.5,3.08 -9.9,4.45 -3.4,1.37 -6.7,2.82 -10,4.12 -6.8,2.54 -13.5,4.94 -20.4,6.86 -6.7,2.06 -13.7,3.56 -20.4,5.15 -6.8,1.23 -13.6,2.53 -20.3,3.15 -13.4,1.71 -26.6,1.92 -39.2,1.37 -6.3,-0.41 -12.5,-0.75 -18.5,-1.58 -3,-0.41 -6,-0.75 -9,-1.23 -2.8,-0.62 -5.7,-1.17 -8.6,-1.71 -5.7,-0.97 -11.2,-2.55 -16.6,-3.92 -2.7,-0.61 -5.3,-1.51 -7.9,-2.26 -2.6,-0.89 -5.1,-1.65 -7.7,-2.47 -5,-1.71 -9.8,-3.64 -14.6,-5.42 -4.7,-1.92 -9.1,-4.05 -13.6,-5.97 -8.7,-4.18 -16.9,-8.37 -24.5,-12.83 -1.8,-1.09 -3.7,-2.19 -5.6,-3.29 -1.8,-1.1 -3.6,-2.26 -5.3,-3.36 -3.5,-2.26 -7,-4.39 -10.2,-6.66 -6.4,-4.52 -12.6,-8.78 -18.2,-13.23 -2.7,-2.2 -5.4,-4.26 -8.1,-6.38 -2.5,-2.13 -5,-4.19 -7.3,-6.25 -2.4,-1.99 -4.7,-3.98 -6.9,-5.9 -2.1,-1.99 -4.2,-3.91 -6.1,-5.76 -8.1,-7.2 -14.5,-13.93 -19.6,-19.21 -5.1,-5.28 -8.8,-9.6 -11.3,-12.41 -2.6,-2.89 -3.9,-4.4 -3.9,-4.4 0,0 1.9,0.76 5.4,2.2 3.5,1.44 8.7,3.64 15.5,6.52 6.9,2.67 15,6.03 24.8,9.67 2.4,0.89 5,1.85 7.6,2.81 2.7,0.89 5.3,1.85 8.2,2.81 2.8,0.97 5.6,1.93 8.6,2.95 3,0.97 6,1.93 9.2,2.89 6.2,2.05 12.9,3.7 19.7,5.69 3.5,0.89 7.1,1.65 10.7,2.54 1.8,0.41 3.6,0.82 5.4,1.3 1.8,0.35 3.7,0.69 5.6,1.1 7.4,1.58 15.2,2.68 23.1,3.77 4,0.41 8.1,0.96 12.1,1.24 4.1,0.2 8.2,0.61 12.3,0.68 8.3,0.14 16.7,0.07 25.1,-0.68 2.1,-0.21 4.2,-0.41 6.3,-0.62 2.1,-0.28 4.2,-0.62 6.2,-0.89 4.3,-0.55 8.4,-1.51 12.6,-2.33 8.3,-2.13 16.5,-4.33 24.6,-7.69 4,-1.44 7.9,-3.5 12,-5.21 3.9,-2.13 7.9,-3.91 11.7,-6.38 3.9,-2.13 7.7,-4.8 11.5,-7.2 1.9,-1.38 3.7,-2.75 5.6,-4.12 2,-1.3 3.8,-2.74 5.7,-4.25 3.7,-2.88 7.3,-6.18 11,-9.33 3.7,-3.36 7.4,-6.59 10.9,-10.36 3.6,-3.5 7,-7.41 10.6,-11.18 1.8,-1.92 3.5,-3.98 5.3,-5.97 1.7,-1.99 3.4,-4.12 5.1,-6.24 6.9,-8.31 13.6,-17.36 20.2,-26.76 26.3,-37.73 50.2,-83.21 73,-132.4 11.4,-24.63 22.5,-50.15 33.5,-76.49 5.5,-13.1 11,-26.48 16.4,-39.92 5.4,-13.52 11,-27.03 16.4,-40.82 3.2,-7.96 6.4,-15.92 9.5,-23.94 l 4.6,-11.46 -482.7,-599.78 c -29.2,-36.29 -23.5,-89.39 12.8,-118.61 15.6,-12.55 34.3,-18.66 52.9,-18.66 24.6,0 49.1,10.77 65.7,31.49 l 423.6,526.24 c 17.6,-41.71 36.1,-83.35 56,-124.38 27.1,-56.04 57,-110.86 91.5,-162.31 8.5,-12.89 17.6,-25.52 26.8,-37.87 9.3,-12.34 18.8,-24.42 28.9,-36.08 10.1,-11.66 20.4,-23.05 31.3,-33.89 l 4.1,-4.04 4.2,-3.98 c 2.7,-2.61 5.4,-5.29 8.3,-7.89 5.7,-5.15 11.4,-10.23 17.4,-15.1 5.7,-4.93 11.9,-9.53 18,-14.2 6.2,-4.52 12.2,-8.98 18.8,-13.1 6.3,-4.25 12.9,-8.09 19.3,-11.93 6.7,-3.64 13.2,-7.35 20.1,-10.5 13.5,-6.59 27.4,-12.14 41.5,-16.47 13.9,-4.39 28.1,-7.54 42.1,-9.6 3.4,-0.41 6.9,-0.89 10.3,-1.3 3.5,-0.35 6.9,-0.62 10.4,-0.82 6.8,-0.69 13.5,-0.55 20.1,-0.62 13.3,0.34 26,1.16 38.2,3.22 24.3,3.84 46.1,10.57 65.4,18.45 4.8,1.86 9.4,4.12 14,6.11 4.5,1.99 8.8,4.25 13.1,6.45 2.1,1.1 4.1,2.19 6.2,3.22 2.1,1.1 4.1,2.27 6,3.43 4,2.27 7.8,4.46 11.5,6.72 3.6,2.34 7.2,4.67 10.7,6.86 3.5,2.2 6.7,4.67 9.9,6.86 3.2,2.27 6.4,4.4 9.4,6.73 2.9,2.26 5.7,4.46 8.6,6.59 11,8.71 20.4,16.87 28.3,24.28 8,7.13 14.3,13.93 19.5,19.07 5.2,5.35 9,9.6 11.6,12.42 2.5,2.81 3.8,4.32 3.8,4.32 0,0 -7.4,-2.88 -20.9,-8.44"/>
  </g>
</svg>